<?xml version="1.0" encoding="UTF-8"?>
<svg xmlns="http://www.w3.org/2000/svg" width="1024px" height="873px" viewBox="0 0 1021 873" version="1.1">
    <g id="surface1">
        <path style=" stroke:none;fill-rule:nonzero;fill:rgb(6.27451%,32.54902%,61.176471%);fill-opacity:1;"
              d="M 144.902344 653.832031 C 143.136719 657.539062 140.339844 659.394531 136.523438 659.394531 C 135.210938 659.394531 134.011719 659.164062 132.929688 658.710938 C 131.847656 658.253906 130.890625 657.609375 130.066406 656.785156 C 129.238281 655.957031 128.597656 655 128.140625 653.917969 C 127.683594 652.832031 127.457031 651.636719 127.457031 650.324219 C 127.457031 649.125 127.714844 647.898438 128.226562 646.644531 L 174.066406 528.8125 C 175.890625 524.59375 178.769531 522.480469 182.703125 522.480469 C 186.636719 522.480469 189.515625 524.59375 191.339844 528.8125 L 237.179688 646.644531 C 237.691406 647.839844 237.949219 649.066406 237.949219 650.324219 C 237.949219 651.636719 237.71875 652.832031 237.265625 653.917969 C 236.808594 655 236.167969 655.957031 235.339844 656.785156 C 234.511719 657.609375 233.542969 658.253906 232.433594 658.710938 C 231.320312 659.164062 230.136719 659.394531 228.882812 659.394531 C 224.890625 659.394531 222.070312 657.539062 220.417969 653.832031 L 182.703125 556.625 Z M 144.902344 653.832031 "/>
        <path style=" stroke:none;fill-rule:nonzero;fill:rgb(6.27451%,32.54902%,61.176471%);fill-opacity:1;"
              d="M 268.480469 540.621094 L 268.480469 595.046875 L 285.753906 595.046875 C 289.460938 595.046875 292.953125 594.332031 296.230469 592.90625 C 299.507812 591.480469 302.386719 589.539062 304.867188 587.085938 C 307.347656 584.632812 309.316406 581.753906 310.769531 578.445312 C 312.222656 575.136719 312.949219 571.597656 312.949219 567.832031 C 312.949219 564.011719 312.222656 560.445312 310.769531 557.136719 C 309.316406 553.828125 307.347656 550.949219 304.867188 548.496094 C 302.386719 546.042969 299.492188 544.117188 296.1875 542.71875 C 292.878906 541.320312 289.402344 540.621094 285.753906 540.621094 Z M 250.347656 650.324219 L 250.347656 531.550781 C 250.347656 530.296875 250.578125 529.113281 251.03125 528 C 251.488281 526.890625 252.128906 525.917969 252.957031 525.09375 C 253.785156 524.265625 254.738281 523.621094 255.820312 523.167969 C 256.90625 522.710938 258.101562 522.480469 259.414062 522.480469 L 285.753906 522.480469 C 289.859375 522.480469 293.835938 523.023438 297.683594 524.109375 C 301.53125 525.191406 305.136719 526.730469 308.503906 528.730469 C 311.867188 530.726562 314.945312 533.105469 317.738281 535.875 C 320.53125 538.640625 322.914062 541.707031 324.878906 545.074219 C 326.847656 548.4375 328.386719 552.046875 329.496094 555.898438 C 330.609375 559.746094 331.164062 563.726562 331.164062 567.832031 C 331.164062 580.269531 326.6875 590.964844 317.738281 599.921875 C 308.902344 608.765625 298.238281 613.1875 285.753906 613.1875 L 268.480469 613.1875 L 268.480469 650.324219 C 268.480469 652.832031 267.59375 654.972656 265.828125 656.742188 C 264.058594 658.507812 261.921875 659.394531 259.414062 659.394531 C 256.90625 659.394531 254.765625 658.507812 253 656.742188 C 251.230469 654.972656 250.347656 652.832031 250.347656 650.324219 Z M 250.347656 650.324219 "/>
        <path style=" stroke:none;fill-rule:nonzero;fill:rgb(6.27451%,32.54902%,61.176471%);fill-opacity:1;"
              d="M 366.996094 650.324219 C 366.996094 652.832031 366.113281 654.972656 364.347656 656.742188 C 362.578125 658.507812 360.441406 659.394531 357.933594 659.394531 C 355.425781 659.394531 353.285156 658.507812 351.519531 656.742188 C 349.75 654.972656 348.867188 652.832031 348.867188 650.324219 L 348.867188 531.550781 C 348.867188 529.042969 349.75 526.902344 351.519531 525.132812 C 353.285156 523.367188 355.425781 522.480469 357.933594 522.480469 C 360.441406 522.480469 362.578125 523.367188 364.347656 525.132812 C 366.113281 526.902344 366.996094 529.042969 366.996094 531.550781 Z M 366.996094 650.324219 "/>
        <path style=" stroke:none;fill-rule:nonzero;fill:rgb(6.27451%,32.54902%,61.176471%);fill-opacity:1;"
              d="M 453.203125 540.621094 L 453.203125 575.277344 L 470.5625 575.277344 C 472.957031 575.277344 475.195312 574.820312 477.277344 573.910156 C 479.355469 572.996094 481.179688 571.742188 482.75 570.144531 C 484.316406 568.546875 485.558594 566.707031 486.46875 564.625 C 487.382812 562.542969 487.835938 560.304688 487.835938 557.90625 C 487.835938 555.570312 487.382812 553.359375 486.46875 551.277344 C 485.558594 549.195312 484.300781 547.355469 482.707031 545.757812 C 481.109375 544.160156 479.269531 542.90625 477.191406 541.992188 C 475.109375 541.078125 472.898438 540.621094 470.5625 540.621094 Z M 453.203125 593.417969 L 453.203125 641.253906 L 477.148438 641.253906 C 480.453125 641.253906 483.5625 640.625 486.46875 639.371094 C 489.375 638.117188 491.898438 636.402344 494.039062 634.234375 C 496.175781 632.066406 497.871094 629.53125 499.125 626.621094 C 500.378906 623.710938 501.007812 620.601562 501.007812 617.292969 C 501.007812 614.042969 500.378906 610.960938 499.125 608.050781 C 497.871094 605.140625 496.160156 602.605469 493.996094 600.4375 C 491.828125 598.269531 489.292969 596.558594 486.382812 595.300781 C 483.476562 594.046875 480.398438 593.417969 477.148438 593.417969 Z M 470.5625 522.480469 C 475.410156 522.480469 479.984375 523.410156 484.289062 525.261719 C 488.59375 527.117188 492.355469 529.65625 495.578125 532.878906 C 498.796875 536.101562 501.335938 539.867188 503.1875 544.175781 C 505.039062 548.480469 505.96875 553.058594 505.96875 557.90625 C 505.96875 566.578125 503.289062 574.136719 497.929688 580.582031 C 501.40625 582.636719 504.457031 585.003906 507.078125 587.6875 C 509.703125 590.367188 511.910156 593.289062 513.707031 596.457031 C 515.503906 599.625 516.855469 602.960938 517.769531 606.46875 C 518.679688 609.976562 519.136719 613.585938 519.136719 617.292969 C 519.136719 623.054688 518.027344 628.488281 515.800781 633.59375 C 513.578125 638.699219 510.570312 643.164062 506.78125 646.984375 C 502.988281 650.808594 498.542969 653.832031 493.4375 656.054688 C 488.335938 658.28125 482.90625 659.394531 477.148438 659.394531 L 444.136719 659.394531 C 442.882812 659.394531 441.714844 659.152344 440.628906 658.667969 C 439.546875 658.179688 438.59375 657.539062 437.765625 656.742188 C 436.9375 655.941406 436.28125 654.988281 435.796875 653.875 C 435.3125 652.761719 435.070312 651.578125 435.070312 650.324219 L 435.070312 531.550781 C 435.070312 530.296875 435.3125 529.113281 435.796875 528 C 436.28125 526.890625 436.9375 525.933594 437.765625 525.132812 C 438.59375 524.335938 439.546875 523.695312 440.628906 523.210938 C 441.714844 522.722656 442.882812 522.480469 444.136719 522.480469 Z M 470.5625 522.480469 "/>
        <path style=" stroke:none;fill-rule:nonzero;fill:rgb(6.27451%,32.54902%,61.176471%);fill-opacity:1;"
              d="M 549.070312 540.621094 L 549.070312 588.457031 L 573.015625 588.457031 C 576.320312 588.457031 579.429688 587.828125 582.335938 586.574219 C 585.246094 585.320312 587.765625 583.59375 589.90625 581.398438 C 592.042969 579.199219 593.738281 576.660156 594.992188 573.78125 C 596.246094 570.898438 596.875 567.832031 596.875 564.582031 C 596.875 561.273438 596.246094 558.164062 594.992188 555.253906 C 593.738281 552.347656 592.027344 549.808594 589.863281 547.640625 C 587.695312 545.472656 585.160156 543.761719 582.25 542.503906 C 579.34375 541.25 576.265625 540.621094 573.015625 540.621094 Z M 530.9375 650.324219 L 530.9375 531.550781 C 530.9375 530.296875 531.167969 529.113281 531.625 528 C 532.078125 526.890625 532.722656 525.917969 533.546875 525.09375 C 534.375 524.265625 535.328125 523.621094 536.414062 523.167969 C 537.496094 522.710938 538.691406 522.480469 540.003906 522.480469 L 573.015625 522.480469 C 578.773438 522.480469 584.203125 523.59375 589.304688 525.820312 C 594.410156 528.042969 598.855469 531.066406 602.648438 534.890625 C 606.4375 538.710938 609.445312 543.175781 611.671875 548.28125 C 613.894531 553.386719 615.003906 558.820312 615.003906 564.582031 C 615.003906 568.347656 614.535156 572.011719 613.59375 575.578125 C 612.652344 579.144531 611.257812 582.507812 609.402344 585.675781 C 607.550781 588.839844 605.242188 591.777344 602.476562 594.488281 C 599.710938 597.199219 596.503906 599.582031 592.855469 601.632812 L 620.136719 645.359375 C 621.105469 646.957031 621.589844 648.613281 621.589844 650.324219 C 621.589844 651.636719 621.363281 652.832031 620.90625 653.917969 C 620.449219 655 619.808594 655.957031 618.980469 656.785156 C 618.15625 657.609375 617.1875 658.253906 616.074219 658.710938 C 614.960938 659.164062 613.78125 659.394531 612.523438 659.394531 C 609.332031 659.394531 606.738281 657.910156 604.742188 654.945312 L 574.554688 606.597656 L 549.070312 606.597656 L 549.070312 650.324219 C 549.070312 652.832031 548.1875 654.972656 546.417969 656.742188 C 544.652344 658.507812 542.511719 659.394531 540.003906 659.394531 C 537.496094 659.394531 535.359375 658.507812 533.589844 656.742188 C 531.824219 654.972656 530.9375 652.832031 530.9375 650.324219 Z M 530.9375 650.324219 "/>
        <path style=" stroke:none;fill-rule:nonzero;fill:rgb(6.27451%,32.54902%,61.176471%);fill-opacity:1;"
              d="M 721.820312 522.480469 C 723.074219 522.480469 724.257812 522.710938 725.367188 523.167969 C 726.480469 523.621094 727.449219 524.265625 728.277344 525.09375 C 729.101562 525.917969 729.746094 526.890625 730.199219 528 C 730.65625 529.113281 730.882812 530.296875 730.882812 531.550781 C 730.882812 532.863281 730.65625 534.0625 730.199219 535.144531 C 729.746094 536.230469 729.101562 537.1875 728.277344 538.011719 C 727.449219 538.839844 726.480469 539.480469 725.367188 539.9375 C 724.257812 540.394531 723.074219 540.621094 721.820312 540.621094 L 642.714844 540.621094 C 641.402344 540.621094 640.207031 540.394531 639.121094 539.9375 C 638.039062 539.480469 637.082031 538.839844 636.257812 538.011719 C 635.429688 537.1875 634.789062 536.230469 634.332031 535.144531 C 633.875 534.0625 633.648438 532.863281 633.648438 531.550781 C 633.648438 530.296875 633.875 529.113281 634.332031 528 C 634.789062 526.890625 635.429688 525.917969 636.257812 525.09375 C 637.082031 524.265625 638.039062 523.621094 639.121094 523.167969 C 640.207031 522.710938 641.402344 522.480469 642.714844 522.480469 Z M 721.820312 641.253906 C 723.074219 641.253906 724.257812 641.480469 725.367188 641.9375 C 726.480469 642.394531 727.449219 643.035156 728.277344 643.863281 C 729.101562 644.691406 729.746094 645.660156 730.199219 646.773438 C 730.65625 647.882812 730.882812 649.066406 730.882812 650.324219 C 730.882812 651.636719 730.65625 652.832031 730.199219 653.917969 C 729.746094 655 729.101562 655.957031 728.277344 656.785156 C 727.449219 657.609375 726.480469 658.253906 725.367188 658.710938 C 724.257812 659.164062 723.074219 659.394531 721.820312 659.394531 L 642.714844 659.394531 C 641.402344 659.394531 640.207031 659.164062 639.121094 658.710938 C 638.039062 658.253906 637.082031 657.609375 636.257812 656.785156 C 635.429688 655.957031 634.789062 655 634.332031 653.917969 C 633.875 652.832031 633.648438 651.636719 633.648438 650.324219 C 633.648438 649.066406 633.875 647.882812 634.332031 646.773438 C 634.789062 645.660156 635.429688 644.691406 636.257812 643.863281 C 637.082031 643.035156 638.039062 642.394531 639.121094 641.9375 C 640.207031 641.480469 641.402344 641.253906 642.714844 641.253906 Z M 715.234375 581.867188 C 716.488281 581.867188 717.671875 582.09375 718.785156 582.550781 C 719.894531 583.007812 720.863281 583.648438 721.691406 584.476562 C 722.519531 585.304688 723.160156 586.273438 723.617188 587.386719 C 724.070312 588.5 724.300781 589.683594 724.300781 590.9375 C 724.300781 592.25 724.070312 593.449219 723.617188 594.53125 C 723.160156 595.617188 722.519531 596.570312 721.691406 597.398438 C 720.863281 598.226562 719.894531 598.867188 718.785156 599.324219 C 717.671875 599.78125 716.488281 600.007812 715.234375 600.007812 L 649.214844 600.007812 C 647.105469 599.949219 645.078125 599.066406 643.140625 597.355469 C 641.316406 595.699219 640.40625 593.5625 640.40625 590.9375 C 640.40625 589.796875 640.632812 588.683594 641.089844 587.601562 C 641.546875 586.515625 642.171875 585.5625 642.96875 584.734375 C 643.769531 583.90625 644.695312 583.238281 645.75 582.722656 C 646.804688 582.210938 647.957031 581.925781 649.214844 581.867188 Z M 715.234375 581.867188 "/>
        <path style=" stroke:none;fill-rule:nonzero;fill:rgb(6.27451%,32.54902%,61.176471%);fill-opacity:1;"
              d="M 761.246094 528.558594 L 785.617188 616.4375 L 809.90625 528.644531 C 810.359375 526.875 811.402344 525.40625 813.027344 524.234375 C 814.652344 523.066406 816.519531 522.480469 818.628906 522.480469 C 820.453125 522.480469 822.175781 523.007812 823.800781 524.066406 C 825.425781 525.121094 826.554688 526.617188 827.179688 528.558594 L 851.554688 616.4375 L 876.011719 528.558594 C 876.410156 527.300781 877.125 526.160156 878.148438 525.132812 C 879.917969 523.367188 882.054688 522.480469 884.5625 522.480469 C 887.074219 522.480469 889.195312 523.367188 890.933594 525.132812 C 892.675781 526.902344 893.542969 529.042969 893.542969 531.550781 C 893.488281 532.691406 893.285156 533.890625 892.945312 535.144531 L 860.703125 652.035156 C 859.90625 654.257812 858.707031 656.042969 857.113281 657.382812 C 855.515625 658.722656 853.664062 659.394531 851.554688 659.394531 C 848.988281 659.394531 846.878906 658.480469 845.226562 656.65625 C 844.027344 655.402344 843.117188 653.917969 842.488281 652.207031 L 818.628906 565.695312 L 794.769531 652.035156 C 793.96875 654.257812 792.773438 656.042969 791.175781 657.382812 C 789.578125 658.722656 787.726562 659.394531 785.617188 659.394531 C 783.050781 659.394531 780.914062 658.480469 779.203125 656.65625 C 778.0625 655.515625 777.179688 654.03125 776.550781 652.207031 L 744.140625 535.0625 C 743.796875 533.75 743.628906 532.578125 743.628906 531.550781 C 743.628906 529.042969 744.511719 526.902344 746.277344 525.132812 C 748.046875 523.367188 750.183594 522.480469 752.691406 522.480469 C 755.199219 522.480469 757.339844 523.367188 759.105469 525.132812 C 760.074219 526.160156 760.789062 527.300781 761.246094 528.558594 Z M 761.246094 528.558594 "/>
        <path style=" stroke:none;fill-rule:evenodd;fill:rgb(6.27451%,32.54902%,61.176471%);fill-opacity:1;"
              d="M 340.789062 236.25 C 339.351562 238.921875 340.355469 242.257812 343.027344 243.695312 C 399.203125 273.933594 456.101562 273.933594 513.074219 243.710938 C 557.546875 220.121094 604.929688 220.121094 649.335938 234.335938 C 655.816406 236.414062 661.636719 238.632812 666.703125 240.84375 C 668.460938 241.613281 670 242.324219 671.296875 242.957031 C 672.054688 243.328125 672.554688 243.582031 672.78125 243.703125 C 675.457031 245.136719 678.785156 244.125 680.21875 241.445312 C 681.648438 238.765625 680.636719 235.433594 677.957031 234.003906 C 676.695312 233.328125 674.378906 232.199219 671.101562 230.765625 C 665.703125 228.410156 659.535156 226.054688 652.6875 223.863281 C 605.703125 208.820312 555.382812 208.820312 507.925781 233.996094 C 454.183594 262.503906 401.167969 262.503906 348.234375 234.011719 C 345.5625 232.574219 342.226562 233.574219 340.789062 236.25 Z M 340.789062 335.226562 C 339.351562 337.902344 340.355469 341.238281 343.027344 342.675781 C 399.203125 372.914062 456.101562 372.914062 513.074219 342.691406 C 557.546875 319.097656 604.929688 319.097656 649.335938 333.316406 C 655.816406 335.390625 661.636719 337.613281 666.703125 339.824219 C 668.460938 340.59375 670 341.304688 671.296875 341.9375 C 672.054688 342.308594 672.554688 342.5625 672.78125 342.683594 C 675.457031 344.113281 678.785156 343.101562 680.21875 340.421875 C 681.648438 337.746094 680.636719 334.414062 677.957031 332.984375 C 676.695312 332.304688 674.378906 331.175781 671.101562 329.746094 C 665.703125 327.386719 659.535156 325.035156 652.6875 322.84375 C 605.703125 307.800781 555.382812 307.800781 507.925781 332.976562 C 454.183594 361.484375 401.167969 361.484375 348.234375 332.992188 C 345.5625 331.550781 342.226562 332.554688 340.789062 335.226562 Z M 340.789062 434.207031 C 339.351562 436.882812 340.355469 440.214844 343.027344 441.65625 C 399.203125 471.894531 456.101562 471.894531 513.074219 441.671875 C 557.546875 418.078125 604.929688 418.078125 649.335938 432.296875 C 655.816406 434.371094 661.636719 436.589844 666.703125 438.804688 C 668.460938 439.574219 670 440.285156 671.296875 440.917969 C 672.054688 441.285156 672.554688 441.542969 672.78125 441.664062 C 675.457031 443.09375 678.785156 442.082031 680.21875 439.402344 C 681.648438 436.722656 680.636719 433.394531 677.957031 431.964844 C 676.695312 431.289062 674.378906 430.15625 671.101562 428.726562 C 665.703125 426.367188 659.535156 424.015625 652.6875 421.824219 C 605.703125 406.78125 555.382812 406.78125 507.925781 431.953125 C 454.183594 460.464844 401.167969 460.464844 348.234375 431.96875 C 345.5625 430.53125 342.226562 431.535156 340.789062 434.207031 Z M 340.789062 434.207031 "/>
    </g>
</svg>