<svg xmlns:mydata="http://www.w3.org/2000/svg" mydata:contrastcolor="ffffff" mydata:template="Contrast"
     mydata:presentation="2.5" mydata:layouttype="undefined" mydata:specialfontid="undefined" mydata:id1="008"
     mydata:id2="975" mydata:companyname="Api Brew" mydata:companytagline="" version="1.1"
     xmlns="http://www.w3.org/2000/svg"
     style="height: 290px;" viewBox="0 0 550 470">
    <g fill="#10539c" fill-rule="none" stroke="none" stroke-width="1" stroke-linecap="butt" stroke-linejoin="miter"
       stroke-miterlimit="10" stroke-dasharray="" stroke-dashoffset="0" font-family="none" font-weight="none"
       font-size="none" text-anchor="none" style="mix-blend-mode: normal">
        <g data-paper-data="{&quot;isGlobalGroup&quot;:true,&quot;bounds&quot;:{&quot;x&quot;:68.65920789986211,&quot;y&quot;:115.00000000000003,&quot;width&quot;:412.6815842002758,&quot;height&quot;:239.99999999999997}}">
            <g data-paper-data="{&quot;isPrimaryText&quot;:true}" fill-rule="nonzero" id="element-id-95679">
                <path d="M78.05718,352.00555c-0.95208,1.9963 -2.45699,2.99445 -4.51471,2.99445c-0.70638,0 -1.35134,-0.12285 -1.93488,-0.36855c-0.58353,-0.2457 -1.09797,-0.59121 -1.54329,-1.03654c-0.44533,-0.44533 -0.79084,-0.95976 -1.03654,-1.54329c-0.2457,-0.58353 -0.36855,-1.22849 -0.36855,-1.93488c0,-0.64496 0.13821,-1.30527 0.41462,-1.98095l24.69271,-63.43632c0.98279,-2.27271 2.53377,-3.40907 4.65292,-3.40907c2.11915,0 3.67012,1.13636 4.65292,3.40907l24.69271,63.43632c0.27641,0.64496 0.41462,1.30527 0.41462,1.98095c0,0.70638 -0.12285,1.35134 -0.36855,1.93488c-0.2457,0.58353 -0.59121,1.09797 -1.03654,1.54329c-0.44533,0.44533 -0.96744,0.79084 -1.56633,1.03654c-0.59889,0.2457 -1.23617,0.36855 -1.91184,0.36855c-2.14986,0 -3.67012,-0.99815 -4.56078,-2.99445l-20.31621,-52.33381z"
                      data-paper-data="{&quot;glyphName&quot;:&quot;Λ&quot;,&quot;glyphIndex&quot;:0,&quot;firstGlyphOfWord&quot;:true,&quot;word&quot;:1}"
                      fill="#10539c" id="element-id-47071"></path>
                <path d="M144.62616,291.05693v29.29956h9.30584c1.9963,0 3.87743,-0.3839 5.64339,-1.15171c1.76596,-0.76781 3.31693,-1.81203 4.65292,-3.13266c1.33599,-1.32063 2.39556,-2.8716 3.17873,-4.65292c0.78316,-1.78132 1.17475,-3.68548 1.17475,-5.71249c0,-2.05773 -0.39158,-3.97725 -1.17475,-5.75856c-0.78316,-1.78132 -1.84274,-3.33229 -3.17873,-4.65292c-1.33599,-1.32063 -2.89464,-2.35717 -4.67595,-3.10962c-1.78132,-0.75245 -3.65477,-1.12868 -5.62036,-1.12868zM134.85964,350.11674v-63.94307c0,-0.67567 0.12285,-1.31295 0.36855,-1.91184c0.2457,-0.59889 0.59121,-1.121 1.03654,-1.56633c0.44533,-0.44533 0.95976,-0.79084 1.54329,-1.03654c0.58353,-0.2457 1.22849,-0.36855 1.93488,-0.36855h14.1891c2.21129,0 4.35347,0.29177 6.42656,0.8753c2.07308,0.58353 4.01564,1.41277 5.82766,2.4877c1.81203,1.07493 3.47049,2.35717 4.9754,3.84672c1.5049,1.48955 2.78714,3.14034 3.84672,4.95236c1.05958,1.81203 1.88881,3.75458 2.4877,5.82766c0.59889,2.07308 0.89834,4.21527 0.89834,6.42656c0,6.69529 -2.41092,12.45385 -7.23275,17.27569c-4.76041,4.76041 -10.50362,7.14062 -17.22962,7.14062h-9.30584v19.99373c0,1.35134 -0.47604,2.50305 -1.42812,3.45514c-0.95208,0.95208 -2.10379,1.42812 -3.45514,1.42812c-1.35134,0 -2.50305,-0.47604 -3.45514,-1.42812c-0.95208,-0.95208 -1.42812,-2.10379 -1.42812,-3.45514z"
                      data-paper-data="{&quot;glyphName&quot;:&quot;P&quot;,&quot;glyphIndex&quot;:1,&quot;word&quot;:1}"
                      fill="#10539c" id="element-id-29012"></path>
                <path d="M197.69706,350.11674c0,1.35134 -0.47604,2.50305 -1.42812,3.45514c-0.95208,0.95208 -2.10379,1.42812 -3.45514,1.42812c-1.35134,0 -2.50305,-0.47604 -3.45514,-1.42812c-0.95208,-0.95208 -1.42812,-2.10379 -1.42812,-3.45514v-63.94307c0,-1.35134 0.47604,-2.50305 1.42812,-3.45514c0.95208,-0.95208 2.10379,-1.42812 3.45514,-1.42812c1.35134,0 2.50305,0.47604 3.45514,1.42812c0.95208,0.95208 1.42812,2.10379 1.42812,3.45514z"
                      data-paper-data="{&quot;glyphName&quot;:&quot;I&quot;,&quot;glyphIndex&quot;:2,&quot;lastGlyphOfWord&quot;:true,&quot;word&quot;:1}"
                      fill="#10539c" id="element-id-49511"></path>
                <path d="M244.13411,291.05693v18.65774h9.3519c1.28992,0 2.49538,-0.2457 3.61638,-0.7371c1.121,-0.4914 2.10379,-1.16707 2.94838,-2.02701c0.84459,-0.85995 1.51258,-1.85042 2.00398,-2.97142c0.4914,-1.121 0.7371,-2.32646 0.7371,-3.61638c0,-1.25921 -0.2457,-2.44931 -0.7371,-3.57031c-0.4914,-1.121 -1.16707,-2.11147 -2.02701,-2.97142c-0.85995,-0.85995 -1.85042,-1.53562 -2.97142,-2.02701c-1.121,-0.4914 -2.3111,-0.7371 -3.57031,-0.7371zM244.13411,319.48119v25.75229h12.89918c1.78132,0 3.45514,-0.33784 5.02147,-1.01351c1.56633,-0.67567 2.92535,-1.59704 4.07706,-2.76411c1.15171,-1.16707 2.0654,-2.53377 2.74108,-4.1001c0.67567,-1.56633 1.01351,-3.24015 1.01351,-5.02147c0,-1.7506 -0.33784,-3.40907 -1.01351,-4.9754c-0.67567,-1.56633 -1.59704,-2.93303 -2.76411,-4.1001c-1.16707,-1.16707 -2.53377,-2.08844 -4.1001,-2.76411c-1.56633,-0.67567 -3.22479,-1.01351 -4.9754,-1.01351zM253.48601,281.29041c2.61055,0 5.07521,0.49908 7.39399,1.49723c2.31878,0.99815 4.34579,2.36485 6.08104,4.1001c1.73525,1.73525 3.10195,3.76226 4.1001,6.08104c0.99815,2.31878 1.49723,4.78345 1.49723,7.39399c0,4.66827 -1.44348,8.73766 -4.33044,12.20815c1.87345,1.10564 3.51656,2.38021 4.92933,3.82369c1.41277,1.44348 2.60287,3.01749 3.57031,4.72202c0.96744,1.70453 1.69686,3.50121 2.18825,5.39001c0.4914,1.88881 0.7371,3.83136 0.7371,5.82766c0,3.10195 -0.59889,6.02729 -1.79667,8.77605c-1.19778,2.74875 -2.81786,5.15199 -4.86023,7.20972c-2.04237,2.05773 -4.43793,3.68548 -7.18669,4.88326c-2.74875,1.19778 -5.6741,1.79667 -8.77605,1.79667h-17.78244c-0.67567,0 -1.30527,-0.13053 -1.88881,-0.39158c-0.58353,-0.26105 -1.09797,-0.60657 -1.54329,-1.03654c-0.44533,-0.42997 -0.79852,-0.9444 -1.05958,-1.54329c-0.26105,-0.59889 -0.39158,-1.23617 -0.39158,-1.91184v-63.94307c0,-0.67567 0.13053,-1.31295 0.39158,-1.91184c0.26105,-0.59889 0.61425,-1.11332 1.05958,-1.54329c0.44533,-0.42997 0.95976,-0.77549 1.54329,-1.03654c0.58353,-0.26105 1.21314,-0.39158 1.88881,-0.39158z"
                      data-paper-data="{&quot;glyphName&quot;:&quot;B&quot;,&quot;glyphIndex&quot;:3,&quot;firstGlyphOfWord&quot;:true,&quot;word&quot;:2}"
                      fill="#10539c" id="element-id-94570"></path>
                <path d="M295.77689,291.05693v25.75229h12.89918c1.78132,0 3.45514,-0.33784 5.02147,-1.01351c1.56633,-0.67567 2.92535,-1.60472 4.07706,-2.78714c1.15171,-1.18242 2.0654,-2.54912 2.74108,-4.1001c0.67567,-1.55097 1.01351,-3.20176 1.01351,-4.95236c0,-1.78132 -0.33784,-3.45514 -1.01351,-5.02147c-0.67567,-1.56633 -1.59704,-2.93303 -2.76411,-4.1001c-1.16707,-1.16707 -2.53377,-2.08844 -4.1001,-2.76411c-1.56633,-0.67567 -3.22479,-1.01351 -4.9754,-1.01351zM286.01037,350.11674v-63.94307c0,-0.67567 0.12285,-1.31295 0.36855,-1.91184c0.2457,-0.59889 0.59121,-1.121 1.03654,-1.56633c0.44533,-0.44533 0.95976,-0.79084 1.54329,-1.03654c0.58353,-0.2457 1.22849,-0.36855 1.93488,-0.36855h17.78244c3.10195,0 6.02729,0.59889 8.77605,1.79667c2.74875,1.19778 5.14432,2.82553 7.18669,4.88326c2.04237,2.05773 3.66245,4.46097 4.86023,7.20972c1.19778,2.74875 1.79667,5.6741 1.79667,8.77605c0,2.02701 -0.25338,4.00028 -0.76013,5.9198c-0.50675,1.91952 -1.25921,3.73155 -2.25736,5.43608c-0.99815,1.70453 -2.242,3.28622 -3.73155,4.74506c-1.48955,1.45884 -3.21712,2.74108 -5.18271,3.84672l14.69585,23.541c0.52211,0.85995 0.78316,1.7506 0.78316,2.67197c0,0.70638 -0.12285,1.35134 -0.36855,1.93488c-0.2457,0.58353 -0.59121,1.09797 -1.03654,1.54329c-0.44533,0.44533 -0.96744,0.79084 -1.56633,1.03654c-0.59889,0.2457 -1.23617,0.36855 -1.91184,0.36855c-1.71989,0 -3.1173,-0.79852 -4.19223,-2.39556l-16.26218,-26.0287h-13.72841v23.541c0,1.35134 -0.47604,2.50305 -1.42812,3.45514c-0.95208,0.95208 -2.10379,1.42812 -3.45514,1.42812c-1.35134,0 -2.50305,-0.47604 -3.45514,-1.42812c-0.95208,-0.95208 -1.42812,-2.10379 -1.42812,-3.45514z"
                      data-paper-data="{&quot;glyphName&quot;:&quot;R&quot;,&quot;glyphIndex&quot;:4,&quot;word&quot;:2}"
                      fill="#10539c" id="element-id-72591"></path>
                <path d="M388.83525,281.29041c0.67567,0 1.31295,0.12285 1.91184,0.36855c0.59889,0.2457 1.121,0.59121 1.56633,1.03654c0.44533,0.44533 0.79084,0.96744 1.03654,1.56633c0.2457,0.59889 0.36855,1.23617 0.36855,1.91184c0,0.70638 -0.12285,1.35134 -0.36855,1.93488c-0.2457,0.58353 -0.59121,1.09797 -1.03654,1.54329c-0.44533,0.44533 -0.96744,0.79084 -1.56633,1.03654c-0.59889,0.2457 -1.23617,0.36855 -1.91184,0.36855h-42.61336c-0.70638,0 -1.35134,-0.12285 -1.93488,-0.36855c-0.58353,-0.2457 -1.09797,-0.59121 -1.54329,-1.03654c-0.44533,-0.44533 -0.79084,-0.95976 -1.03654,-1.54329c-0.2457,-0.58353 -0.36855,-1.22849 -0.36855,-1.93488c0,-0.67567 0.12285,-1.31295 0.36855,-1.91184c0.2457,-0.59889 0.59121,-1.121 1.03654,-1.56633c0.44533,-0.44533 0.95976,-0.79084 1.54329,-1.03654c0.58353,-0.2457 1.22849,-0.36855 1.93488,-0.36855zM388.83525,345.23348c0.67567,0 1.31295,0.12285 1.91184,0.36855c0.59889,0.2457 1.121,0.59121 1.56633,1.03654c0.44533,0.44533 0.79084,0.96744 1.03654,1.56633c0.2457,0.59889 0.36855,1.23617 0.36855,1.91184c0,0.70638 -0.12285,1.35134 -0.36855,1.93488c-0.2457,0.58353 -0.59121,1.09797 -1.03654,1.54329c-0.44533,0.44533 -0.96744,0.79084 -1.56633,1.03654c-0.59889,0.2457 -1.23617,0.36855 -1.91184,0.36855h-42.61336c-0.70638,0 -1.35134,-0.12285 -1.93488,-0.36855c-0.58353,-0.2457 -1.09797,-0.59121 -1.54329,-1.03654c-0.44533,-0.44533 -0.79084,-0.95976 -1.03654,-1.54329c-0.2457,-0.58353 -0.36855,-1.22849 -0.36855,-1.93488c0,-0.67567 0.12285,-1.31295 0.36855,-1.91184c0.2457,-0.59889 0.59121,-1.121 1.03654,-1.56633c0.44533,-0.44533 0.95976,-0.79084 1.54329,-1.03654c0.58353,-0.2457 1.22849,-0.36855 1.93488,-0.36855zM385.28798,313.26194c0.67567,0 1.31295,0.12285 1.91184,0.36855c0.59889,0.2457 1.121,0.59121 1.56633,1.03654c0.44533,0.44533 0.79084,0.96744 1.03654,1.56633c0.2457,0.59889 0.36855,1.23617 0.36855,1.91184c0,0.70638 -0.12285,1.35134 -0.36855,1.93488c-0.2457,0.58353 -0.59121,1.09797 -1.03654,1.54329c-0.44533,0.44533 -0.96744,0.79084 -1.56633,1.03654c-0.59889,0.2457 -1.23617,0.36855 -1.91184,0.36855h-35.56488c-1.13636,-0.03071 -2.22664,-0.50675 -3.27086,-1.42812c-0.98279,-0.89066 -1.47419,-2.04237 -1.47419,-3.45514c0,-0.61425 0.12285,-1.21314 0.36855,-1.79667c0.2457,-0.58353 0.58353,-1.09797 1.01351,-1.54329c0.42997,-0.44533 0.92905,-0.8062 1.49723,-1.08261c0.56818,-0.27641 1.1901,-0.42997 1.86577,-0.46068z"
                      data-paper-data="{&quot;glyphName&quot;:&quot;Ξ&quot;,&quot;glyphIndex&quot;:5,&quot;word&quot;:2}"
                      fill="#10539c" id="element-id-52975"></path>
                <path d="M410.07283,284.56127l13.12952,47.31235l13.08345,-47.26628c0.2457,-0.95208 0.8062,-1.74292 1.6815,-2.37253c0.8753,-0.6296 1.88113,-0.9444 3.01749,-0.9444c0.98279,0 1.91184,0.28409 2.78714,0.85227c0.8753,0.56818 1.48187,1.37438 1.81971,2.4186l13.12952,47.31235l13.17559,-47.31235c0.21499,-0.67567 0.59889,-1.28992 1.15171,-1.84274c0.95208,-0.95208 2.10379,-1.42812 3.45514,-1.42812c1.35134,0 2.49538,0.47604 3.4321,1.42812c0.93673,0.95208 1.40509,2.10379 1.40509,3.45514c-0.03071,0.61425 -0.13821,1.25921 -0.32248,1.93488l-17.36782,62.92957c-0.42997,1.19778 -1.07493,2.15754 -1.93488,2.87928c-0.85995,0.72174 -1.8581,1.08261 -2.99445,1.08261c-1.38205,0 -2.51841,-0.4914 -3.40907,-1.47419c-0.64496,-0.67567 -1.13636,-1.47419 -1.47419,-2.39556l-12.85311,-46.57525l-12.85311,46.48311c-0.42997,1.19778 -1.07493,2.15754 -1.93488,2.87928c-0.85995,0.72174 -1.8581,1.08261 -2.99445,1.08261c-1.38205,0 -2.53377,-0.4914 -3.45514,-1.47419c-0.61425,-0.61425 -1.09029,-1.41277 -1.42812,-2.39556l-17.45996,-63.06777c-0.18427,-0.70638 -0.27641,-1.33599 -0.27641,-1.88881c0,-1.35134 0.47604,-2.50305 1.42812,-3.45514c0.95208,-0.95208 2.10379,-1.42812 3.45514,-1.42812c1.35134,0 2.50305,0.47604 3.45514,1.42812c0.52211,0.55282 0.90601,1.16707 1.15171,1.84274z"
                      data-paper-data="{&quot;glyphName&quot;:&quot;W&quot;,&quot;glyphIndex&quot;:6,&quot;lastGlyphOfWord&quot;:true,&quot;word&quot;:2}"
                      fill="#10539c" id="element-id-60506"></path>
            </g>
            <g data-paper-data="{&quot;fillRule&quot;:&quot;evenodd&quot;,&quot;fillRuleOriginal&quot;:&quot;evenodd&quot;,&quot;isIcon&quot;:true,&quot;iconStyle&quot;:&quot;standalone&quot;,&quot;selectedEffects&quot;:{&quot;container&quot;:&quot;&quot;,&quot;transformation&quot;:&quot;&quot;,&quot;pattern&quot;:&quot;&quot;},&quot;bounds&quot;:{&quot;x&quot;:183.2258115733194,&quot;y&quot;:115.00000000000003,&quot;width&quot;:183.54837685336122,&quot;height&quot;:134.98605910398211},&quot;iconType&quot;:&quot;icon&quot;,&quot;rawIconId&quot;:&quot;1352914&quot;,&quot;isDetailed&quot;:false,&quot;suitableAsStandaloneIcon&quot;:true}"
               fill-rule="evenodd" id="element-id-3962">
                <path d="M183.57968,127.19024c-0.77456,1.43988 -0.23526,3.23506 1.20463,4.00962c30.2618,16.27911 60.91232,16.27911 91.60257,0.00846c23.95768,-12.70178 49.48029,-12.70178 73.40285,-5.04707c3.49059,1.11692 6.62605,2.31189 9.35531,3.50352c0.94727,0.41402 1.77482,0.79659 2.47469,1.13775c0.40779,0.19919 0.67673,0.33637 0.79883,0.40149c1.44204,0.77034 3.23521,0.2256 4.00612,-1.2166c0.7701,-1.4422 0.22505,-3.23577 -1.217,-4.00604c-0.68072,-0.36374 -1.92884,-0.97208 -3.69329,-1.74266c-2.90802,-1.26975 -6.23103,-2.53622 -9.92032,-3.71667c-25.30874,-8.09826 -52.41624,-8.09826 -77.98115,5.45509c-28.94975,15.34821 -57.50792,15.34821 -86.02363,0.00846c-1.43988,-0.77456 -3.23506,-0.23526 -4.00962,1.20463zM183.57968,180.478c-0.77456,1.43964 -0.23526,3.23521 1.20463,4.0093c30.2618,16.27982 60.91232,16.27982 91.60257,0.00878c23.95768,-12.70146 49.48029,-12.70146 73.40285,-5.04675c3.49059,1.11644 6.62605,2.31189 9.35531,3.50335c0.94727,0.41418 1.77482,0.79643 2.47469,1.13799c0.40779,0.19871 0.67673,0.33597 0.79883,0.40141c1.44204,0.7701 3.23521,0.22505 4.00612,-1.217c0.7701,-1.44204 0.22505,-3.23521 -1.217,-4.00612c-0.68072,-0.3639 -1.92884,-0.972 -3.69329,-1.7421c-2.90802,-1.27047 -6.23103,-2.53614 -9.92032,-3.71722c-25.30874,-8.09841 -52.41624,-8.09841 -77.98115,5.45533c-28.94975,15.34852 -57.50792,15.34852 -86.02363,0.00878c-1.43988,-0.77489 -3.23506,-0.23542 -4.00962,1.20422zM183.57968,233.76569c-0.77456,1.44044 -0.23526,3.23521 1.20463,4.0101c30.2618,16.27902 60.91232,16.27902 91.60257,0.00798c23.95768,-12.70146 49.48029,-12.70146 73.40285,-5.04675c3.49059,1.11644 6.62605,2.31189 9.35531,3.50335c0.94727,0.41418 1.77482,0.79643 2.47469,1.13799c0.40779,0.19871 0.67673,0.33597 0.79883,0.40141c1.44204,0.7701 3.23521,0.22585 4.00612,-1.217c0.7701,-1.44204 0.22505,-3.23521 -1.217,-4.00532c-0.68072,-0.3639 -1.92884,-0.9728 -3.69329,-1.7429c-2.90802,-1.26967 -6.23103,-2.53614 -9.92032,-3.71643c-25.30874,-8.09841 -52.41624,-8.09841 -77.98115,5.45453c-28.94975,15.34852 -57.50792,15.34852 -86.02363,0.00878c-1.43988,-0.77489 -3.23506,-0.23542 -4.00962,1.20422z"
                      data-paper-data="{&quot;isPathIcon&quot;:true}" fill="#10539c" id="element-id-68007"></path>
            </g>
        </g>
    </g>
    </svg>