<?xml version="1.0" encoding="UTF-8"?>
<svg xmlns="http://www.w3.org/2000/svg" width="150px" height="87px" viewBox="0 0 149 87" version="1.1">
    <g id="surface1">
        <path style=" stroke:none;fill-rule:nonzero;fill:rgb(6.27451%,32.54902%,61.176471%);fill-opacity:1;"
              d="M 3.390625 85.886719 C 3.050781 86.613281 2.503906 86.972656 1.761719 86.972656 C 1.507812 86.972656 1.273438 86.929688 1.0625 86.839844 C 0.851562 86.75 0.667969 86.625 0.507812 86.464844 C 0.347656 86.304688 0.222656 86.117188 0.132812 85.90625 C 0.0429688 85.695312 0 85.460938 0 85.203125 C 0 84.96875 0.0507812 84.730469 0.148438 84.488281 L 9.066406 61.503906 C 9.417969 60.679688 9.980469 60.269531 10.746094 60.269531 C 11.507812 60.269531 12.070312 60.679688 12.425781 61.503906 L 21.339844 84.488281 C 21.4375 84.71875 21.488281 84.957031 21.488281 85.203125 C 21.488281 85.460938 21.445312 85.695312 21.355469 85.90625 C 21.269531 86.117188 21.144531 86.304688 20.980469 86.464844 C 20.820312 86.625 20.632812 86.75 20.417969 86.839844 C 20.199219 86.929688 19.96875 86.972656 19.726562 86.972656 C 18.949219 86.972656 18.402344 86.613281 18.078125 85.886719 L 10.746094 66.929688 Z M 3.390625 85.886719 "/>
        <path style=" stroke:none;fill-rule:nonzero;fill:rgb(6.27451%,32.54902%,61.176471%);fill-opacity:1;"
              d="M 27.425781 63.808594 L 27.425781 74.421875 L 30.789062 74.421875 C 31.507812 74.421875 32.1875 74.285156 32.824219 74.003906 C 33.460938 73.726562 34.023438 73.347656 34.503906 72.871094 C 34.988281 72.390625 35.371094 71.828125 35.652344 71.183594 C 35.933594 70.539062 36.078125 69.847656 36.078125 69.113281 C 36.078125 68.371094 35.933594 67.675781 35.652344 67.027344 C 35.371094 66.382812 34.988281 65.820312 34.503906 65.34375 C 34.023438 64.863281 33.460938 64.488281 32.816406 64.214844 C 32.171875 63.945312 31.496094 63.808594 30.789062 63.808594 Z M 23.902344 85.203125 L 23.902344 62.039062 C 23.902344 61.792969 23.945312 61.5625 24.035156 61.34375 C 24.121094 61.128906 24.246094 60.941406 24.410156 60.777344 C 24.570312 60.617188 24.753906 60.492188 24.964844 60.402344 C 25.175781 60.3125 25.410156 60.269531 25.664062 60.269531 L 30.789062 60.269531 C 31.585938 60.269531 32.359375 60.375 33.109375 60.585938 C 33.855469 60.796875 34.558594 61.097656 35.210938 61.488281 C 35.867188 61.878906 36.464844 62.339844 37.007812 62.882812 C 37.550781 63.421875 38.015625 64.019531 38.398438 64.675781 C 38.78125 65.332031 39.078125 66.035156 39.292969 66.785156 C 39.511719 67.539062 39.621094 68.3125 39.621094 69.113281 C 39.621094 71.539062 38.75 73.625 37.007812 75.375 C 35.289062 77.097656 33.214844 77.960938 30.789062 77.960938 L 27.425781 77.960938 L 27.425781 85.203125 C 27.425781 85.695312 27.253906 86.109375 26.910156 86.457031 C 26.566406 86.800781 26.152344 86.972656 25.664062 86.972656 C 25.175781 86.972656 24.761719 86.800781 24.417969 86.457031 C 24.074219 86.109375 23.902344 85.695312 23.902344 85.203125 Z M 23.902344 85.203125 "/>
        <path style=" stroke:none;fill-rule:nonzero;fill:rgb(6.27451%,32.54902%,61.176471%);fill-opacity:1;"
              d="M 46.589844 85.203125 C 46.589844 85.695312 46.417969 86.109375 46.074219 86.457031 C 45.730469 86.800781 45.3125 86.972656 44.824219 86.972656 C 44.339844 86.972656 43.921875 86.800781 43.578125 86.457031 C 43.234375 86.109375 43.0625 85.695312 43.0625 85.203125 L 43.0625 62.039062 C 43.0625 61.550781 43.234375 61.132812 43.578125 60.785156 C 43.921875 60.441406 44.339844 60.269531 44.824219 60.269531 C 45.3125 60.269531 45.730469 60.441406 46.074219 60.785156 C 46.417969 61.132812 46.589844 61.550781 46.589844 62.039062 Z M 46.589844 85.203125 "/>
        <path style=" stroke:none;fill-rule:nonzero;fill:rgb(6.27451%,32.54902%,61.176471%);fill-opacity:1;"
              d="M 63.355469 63.808594 L 63.355469 70.566406 L 66.730469 70.566406 C 67.195312 70.566406 67.632812 70.476562 68.039062 70.300781 C 68.441406 70.121094 68.796875 69.878906 69.101562 69.566406 C 69.40625 69.253906 69.648438 68.894531 69.824219 68.488281 C 70.003906 68.082031 70.089844 67.644531 70.089844 67.179688 C 70.089844 66.722656 70.003906 66.292969 69.824219 65.886719 C 69.648438 65.480469 69.402344 65.121094 69.09375 64.808594 C 68.78125 64.496094 68.425781 64.253906 68.019531 64.074219 C 67.617188 63.894531 67.1875 63.808594 66.730469 63.808594 Z M 63.355469 74.105469 L 63.355469 83.433594 L 68.011719 83.433594 C 68.65625 83.433594 69.261719 83.3125 69.824219 83.066406 C 70.390625 82.824219 70.882812 82.488281 71.296875 82.066406 C 71.714844 81.644531 72.042969 81.148438 72.285156 80.582031 C 72.53125 80.011719 72.652344 79.40625 72.652344 78.761719 C 72.652344 78.128906 72.53125 77.527344 72.285156 76.960938 C 72.042969 76.390625 71.710938 75.898438 71.289062 75.472656 C 70.867188 75.050781 70.375 74.71875 69.808594 74.472656 C 69.242188 74.226562 68.644531 74.105469 68.011719 74.105469 Z M 66.730469 60.269531 C 67.675781 60.269531 68.5625 60.449219 69.402344 60.8125 C 70.238281 61.171875 70.96875 61.667969 71.597656 62.296875 C 72.222656 62.925781 72.714844 63.660156 73.078125 64.5 C 73.4375 65.339844 73.617188 66.234375 73.617188 67.179688 C 73.617188 68.871094 73.097656 70.34375 72.054688 71.601562 C 72.730469 72.003906 73.324219 72.464844 73.832031 72.988281 C 74.34375 73.511719 74.773438 74.078125 75.121094 74.699219 C 75.472656 75.316406 75.734375 75.964844 75.914062 76.652344 C 76.089844 77.335938 76.179688 78.039062 76.179688 78.761719 C 76.179688 79.886719 75.964844 80.945312 75.53125 81.941406 C 75.097656 82.9375 74.511719 83.808594 73.777344 84.554688 C 73.039062 85.296875 72.171875 85.886719 71.179688 86.320312 C 70.1875 86.757812 69.132812 86.972656 68.011719 86.972656 L 61.589844 86.972656 C 61.347656 86.972656 61.121094 86.925781 60.910156 86.832031 C 60.699219 86.738281 60.515625 86.613281 60.351562 86.457031 C 60.191406 86.300781 60.0625 86.113281 59.96875 85.898438 C 59.875 85.679688 59.828125 85.449219 59.828125 85.203125 L 59.828125 62.039062 C 59.828125 61.792969 59.875 61.5625 59.96875 61.34375 C 60.0625 61.128906 60.191406 60.941406 60.351562 60.785156 C 60.515625 60.632812 60.699219 60.507812 60.910156 60.410156 C 61.121094 60.316406 61.347656 60.269531 61.589844 60.269531 Z M 66.730469 60.269531 "/>
        <path style=" stroke:none;fill-rule:nonzero;fill:rgb(6.27451%,32.54902%,61.176471%);fill-opacity:1;"
              d="M 82 63.808594 L 82 73.136719 L 86.65625 73.136719 C 87.300781 73.136719 87.90625 73.015625 88.46875 72.769531 C 89.035156 72.527344 89.527344 72.1875 89.941406 71.761719 C 90.359375 71.332031 90.6875 70.835938 90.933594 70.273438 C 91.175781 69.710938 91.296875 69.113281 91.296875 68.480469 C 91.296875 67.835938 91.175781 67.230469 90.933594 66.660156 C 90.6875 66.09375 90.355469 65.597656 89.933594 65.175781 C 89.511719 64.753906 89.019531 64.417969 88.453125 64.175781 C 87.890625 63.929688 87.289062 63.808594 86.65625 63.808594 Z M 78.472656 85.203125 L 78.472656 62.039062 C 78.472656 61.792969 78.519531 61.5625 78.609375 61.34375 C 78.695312 61.128906 78.820312 60.941406 78.980469 60.777344 C 79.140625 60.617188 79.328125 60.492188 79.539062 60.402344 C 79.75 60.3125 79.980469 60.269531 80.238281 60.269531 L 86.65625 60.269531 C 87.777344 60.269531 88.832031 60.484375 89.824219 60.921875 C 90.820312 61.355469 91.683594 61.945312 92.421875 62.691406 C 93.160156 63.433594 93.742188 64.304688 94.175781 65.300781 C 94.609375 66.296875 94.824219 67.355469 94.824219 68.480469 C 94.824219 69.214844 94.734375 69.929688 94.550781 70.625 C 94.367188 71.320312 94.097656 71.976562 93.734375 72.59375 C 93.375 73.210938 92.925781 73.785156 92.386719 74.3125 C 91.851562 74.84375 91.226562 75.308594 90.515625 75.707031 L 95.824219 84.234375 C 96.011719 84.546875 96.105469 84.871094 96.105469 85.203125 C 96.105469 85.460938 96.0625 85.695312 95.972656 85.90625 C 95.882812 86.117188 95.757812 86.304688 95.597656 86.464844 C 95.4375 86.625 95.25 86.75 95.03125 86.839844 C 94.816406 86.929688 94.585938 86.972656 94.34375 86.972656 C 93.722656 86.972656 93.21875 86.683594 92.828125 86.105469 L 86.957031 76.675781 L 82 76.675781 L 82 85.203125 C 82 85.695312 81.828125 86.109375 81.484375 86.457031 C 81.140625 86.800781 80.726562 86.972656 80.238281 86.972656 C 79.75 86.972656 79.335938 86.800781 78.988281 86.457031 C 78.644531 86.109375 78.472656 85.695312 78.472656 85.203125 Z M 78.472656 85.203125 "/>
        <path style=" stroke:none;fill-rule:nonzero;fill:rgb(6.27451%,32.54902%,61.176471%);fill-opacity:1;"
              d="M 115.597656 60.269531 C 115.84375 60.269531 116.074219 60.3125 116.289062 60.402344 C 116.507812 60.492188 116.695312 60.617188 116.855469 60.777344 C 117.015625 60.941406 117.140625 61.128906 117.230469 61.34375 C 117.316406 61.5625 117.363281 61.792969 117.363281 62.039062 C 117.363281 62.292969 117.316406 62.527344 117.230469 62.738281 C 117.140625 62.949219 117.015625 63.136719 116.855469 63.296875 C 116.695312 63.460938 116.507812 63.585938 116.289062 63.675781 C 116.074219 63.761719 115.84375 63.808594 115.597656 63.808594 L 100.214844 63.808594 C 99.957031 63.808594 99.726562 63.761719 99.515625 63.675781 C 99.304688 63.585938 99.117188 63.460938 98.957031 63.296875 C 98.796875 63.136719 98.671875 62.949219 98.582031 62.738281 C 98.496094 62.527344 98.449219 62.292969 98.449219 62.039062 C 98.449219 61.792969 98.496094 61.5625 98.582031 61.34375 C 98.671875 61.128906 98.796875 60.941406 98.957031 60.777344 C 99.117188 60.617188 99.304688 60.492188 99.515625 60.402344 C 99.726562 60.3125 99.957031 60.269531 100.214844 60.269531 Z M 115.597656 83.433594 C 115.84375 83.433594 116.074219 83.480469 116.289062 83.570312 C 116.507812 83.65625 116.695312 83.78125 116.855469 83.945312 C 117.015625 84.105469 117.140625 84.292969 117.230469 84.511719 C 117.316406 84.726562 117.363281 84.957031 117.363281 85.203125 C 117.363281 85.460938 117.316406 85.695312 117.230469 85.90625 C 117.140625 86.117188 117.015625 86.304688 116.855469 86.464844 C 116.695312 86.625 116.507812 86.75 116.289062 86.839844 C 116.074219 86.929688 115.84375 86.972656 115.597656 86.972656 L 100.214844 86.972656 C 99.957031 86.972656 99.726562 86.929688 99.515625 86.839844 C 99.304688 86.75 99.117188 86.625 98.957031 86.464844 C 98.796875 86.304688 98.671875 86.117188 98.582031 85.90625 C 98.496094 85.695312 98.449219 85.460938 98.449219 85.203125 C 98.449219 84.957031 98.496094 84.726562 98.582031 84.511719 C 98.671875 84.292969 98.796875 84.105469 98.957031 83.945312 C 99.117188 83.78125 99.304688 83.65625 99.515625 83.570312 C 99.726562 83.480469 99.957031 83.433594 100.214844 83.433594 Z M 114.320312 71.851562 C 114.5625 71.851562 114.792969 71.894531 115.007812 71.984375 C 115.226562 72.074219 115.414062 72.199219 115.574219 72.359375 C 115.734375 72.523438 115.859375 72.710938 115.949219 72.929688 C 116.039062 73.144531 116.082031 73.375 116.082031 73.621094 C 116.082031 73.878906 116.039062 74.109375 115.949219 74.320312 C 115.859375 74.535156 115.734375 74.71875 115.574219 74.882812 C 115.414062 75.042969 115.226562 75.167969 115.007812 75.257812 C 114.792969 75.347656 114.5625 75.390625 114.320312 75.390625 L 101.476562 75.390625 C 101.066406 75.378906 100.671875 75.207031 100.296875 74.871094 C 99.941406 74.550781 99.765625 74.132812 99.765625 73.621094 C 99.765625 73.398438 99.808594 73.179688 99.898438 72.96875 C 99.988281 72.757812 100.109375 72.574219 100.261719 72.410156 C 100.417969 72.25 100.597656 72.121094 100.804688 72.019531 C 101.007812 71.917969 101.234375 71.863281 101.476562 71.851562 Z M 114.320312 71.851562 "/>
        <path style=" stroke:none;fill-rule:nonzero;fill:rgb(6.27451%,32.54902%,61.176471%);fill-opacity:1;"
              d="M 123.269531 61.453125 L 128.007812 78.59375 L 132.730469 61.472656 C 132.820312 61.125 133.023438 60.839844 133.339844 60.609375 C 133.65625 60.382812 134.019531 60.269531 134.429688 60.269531 C 134.78125 60.269531 135.117188 60.371094 135.433594 60.578125 C 135.75 60.785156 135.96875 61.074219 136.089844 61.453125 L 140.832031 78.59375 L 145.589844 61.453125 C 145.667969 61.210938 145.804688 60.988281 146.003906 60.785156 C 146.347656 60.441406 146.765625 60.269531 147.253906 60.269531 C 147.742188 60.269531 148.152344 60.441406 148.492188 60.785156 C 148.828125 61.132812 149 61.550781 149 62.039062 C 148.988281 62.261719 148.949219 62.496094 148.882812 62.738281 L 142.613281 85.539062 C 142.457031 85.972656 142.222656 86.320312 141.914062 86.582031 C 141.601562 86.84375 141.242188 86.972656 140.832031 86.972656 C 140.332031 86.972656 139.921875 86.796875 139.601562 86.4375 C 139.367188 86.195312 139.191406 85.90625 139.070312 85.570312 L 134.429688 68.699219 L 129.789062 85.539062 C 129.632812 85.972656 129.398438 86.320312 129.089844 86.582031 C 128.777344 86.84375 128.417969 86.972656 128.007812 86.972656 C 127.507812 86.972656 127.09375 86.796875 126.761719 86.4375 C 126.539062 86.214844 126.367188 85.925781 126.246094 85.570312 L 119.941406 62.722656 C 119.875 62.46875 119.839844 62.238281 119.839844 62.039062 C 119.839844 61.550781 120.011719 61.132812 120.355469 60.785156 C 120.699219 60.441406 121.117188 60.269531 121.605469 60.269531 C 122.089844 60.269531 122.507812 60.441406 122.851562 60.785156 C 123.039062 60.988281 123.179688 61.210938 123.269531 61.453125 Z M 123.269531 61.453125 "/>
    </g>
</svg>
